<?xml version="1.0" ?><!DOCTYPE svg  PUBLIC '-//W3C//DTD SVG 1.1//EN'  'http://www.w3.org/Graphics/SVG/1.1/DTD/svg11.dtd'><svg enable-background="new 0 0 91 91" height="91px" id="Layer_1" version="1.1" viewBox="0 0 91 91" width="91px" xml:space="preserve" xmlns="http://www.w3.org/2000/svg" xmlns:xlink="http://www.w3.org/1999/xlink"><g><g><g><line fill="#E4E4E6" x1="69.439" x2="69.439" y1="29.007" y2="64.613"/><path d="M69.439,66.565c-1.078,0-1.952-0.874-1.952-1.952V29.007c0-1.078,0.874-1.952,1.952-1.952     s1.952,0.875,1.952,1.952v35.606C71.392,65.691,70.518,66.565,69.439,66.565z" fill="#434B56"/></g><g><path d="M69.439,49.666h-6.158c-0.88-12.79,6.158-20.659,6.158-20.659V49.666z" fill="#E4E4E6"/><path d="M69.439,51.618h-6.158c-1.026,0-1.877-0.794-1.948-1.818c-0.926-13.457,6.342-21.748,6.651-22.094     c0.539-0.604,1.396-0.811,2.151-0.522c0.757,0.288,1.256,1.014,1.256,1.823v20.659C71.392,50.744,70.518,51.618,69.439,51.618z      M65.159,47.714h2.328V36.103C66.234,39.031,65.123,42.976,65.159,47.714z" fill="#434B56"/></g><path d="M81.791,66.391c-1.077,0-1.951-0.874-1.951-1.952v-19.06c0-1.077,0.874-1.951,1.951-1.951    c1.078,0,1.952,0.874,1.952,1.951v19.06C83.743,65.517,82.869,66.391,81.791,66.391z" fill="#434B56"/><g><path d="M88.735,37.28c0,4.477-3.109,8.099-6.944,8.099c-3.834,0-6.942-3.623-6.942-8.099     c0-4.472,3.108-8.097,6.942-8.097C85.626,29.183,88.735,32.808,88.735,37.28z" fill="#E4E4E6"/><path d="M81.791,47.332c-4.905,0-8.896-4.51-8.896-10.052c0-5.542,3.99-10.048,8.896-10.048     c4.906,0,8.896,4.507,8.896,10.048C90.688,42.822,86.697,47.332,81.791,47.332z M81.791,31.136c-2.752,0-4.991,2.756-4.991,6.144     c0,3.39,2.239,6.148,4.991,6.148s4.991-2.758,4.991-6.148C86.782,33.892,84.543,31.136,81.791,31.136z" fill="#434B56"/></g><g><circle cx="37.412" cy="46.81" fill="#B1E1F8" r="19.745"/><path d="M37.414,68.507c-11.965,0-21.7-9.733-21.7-21.697c0-11.963,9.734-21.695,21.7-21.695     c11.963,0,21.696,9.732,21.696,21.695C59.11,58.773,49.377,68.507,37.414,68.507z M37.414,29.019     c-9.813,0-17.795,7.981-17.795,17.791c0,9.812,7.983,17.794,17.795,17.794c9.811,0,17.792-7.982,17.792-17.794     C55.206,37,47.225,29.019,37.414,29.019z" fill="#434B56"/></g><g><circle cx="37.411" cy="46.81" fill="#E4E4E6" r="13.3"/><path d="M37.414,62.062c-8.412,0-15.255-6.843-15.255-15.252c0-8.409,6.843-15.25,15.255-15.25     c8.408,0,15.25,6.841,15.25,15.25C52.664,55.219,45.822,62.062,37.414,62.062z M37.414,35.464     c-6.259,0-11.351,5.09-11.351,11.346c0,6.258,5.092,11.347,11.351,11.347c6.255,0,11.345-5.089,11.345-11.347     C48.759,40.554,43.669,35.464,37.414,35.464z" fill="#434B56"/></g><g><path d="M13.708,29.183v10.723c0,2.017-1.634,3.652-3.647,3.652H5.768c-2.012,0-3.646-1.636-3.646-3.652V29.183" fill="#E4E4E6"/><path d="M10.061,45.511H5.768c-3.087,0-5.599-2.515-5.599-5.604V29.183c0-1.078,0.874-1.952,1.952-1.952     s1.952,0.874,1.952,1.952v10.723c0,0.938,0.76,1.7,1.694,1.7h4.293c0.935,0,1.695-0.762,1.695-1.7V29.183     c0-1.078,0.874-1.952,1.952-1.952s1.952,0.874,1.952,1.952v10.723C15.66,42.996,13.148,45.511,10.061,45.511z" fill="#434B56"/></g><path d="M7.914,66.391c-1.078,0-1.952-0.874-1.952-1.952v-20.88c0-1.078,0.874-1.953,1.952-1.953    s1.952,0.875,1.952,1.953v20.88C9.866,65.517,8.992,66.391,7.914,66.391z" fill="#434B56"/><g><line fill="#E4E4E6" x1="7.914" x2="7.914" y1="37.668" y2="29.183"/><path d="M7.914,39.62c-1.078,0-1.952-0.874-1.952-1.952v-8.485c0-1.078,0.874-1.952,1.952-1.952     s1.952,0.874,1.952,1.952v8.485C9.866,38.746,8.992,39.62,7.914,39.62z" fill="#434B56"/></g></g></g></svg>